#N canvas 1371 237 542 530 10;
#X obj 208 212 channels~;
#X msg 35 139 view;
#X obj 202 265 *~ 0.5;
#X obj 247 266 *~ 0.5;
#X obj 192 296 lop~ 300;
#X obj 252 296 lop~ 300;
#X obj 61 69 r note;
#X msg 206 101 0 47 127 banjo_1.sf2 100 0 0 60 1;
#X msg 181 75 0 47 127 banjo_1.sf2 100 127 127 127 0;
#X msg 224 127 0 60 127 piano_1.sf2 100 127 127 127 3;
#X obj 209 332 dac~;
#X msg 148 50 init 0 stereo SFPatch 47 127 banjo_1.sf2 100 0 0 127
0;
#X connect 0 0 2 0;
#X connect 0 1 3 0;
#X connect 1 0 0 0;
#X connect 2 0 4 0;
#X connect 3 0 5 0;
#X connect 4 0 10 0;
#X connect 5 0 10 1;
#X connect 6 0 0 0;
#X connect 7 0 0 0;
#X connect 8 0 0 0;
#X connect 9 0 0 0;
#X connect 11 0 0 0;
