#N canvas 1378 367 450 300 10;
#X obj 128 120 osc~;
#X obj 126 253 dac~;
#X obj 125 50 r note;
#X obj 294 142 s note;
#X msg 293 77 440;
#X msg 354 94 0;
#X connect 0 0 1 0;
#X connect 2 0 0 0;
#X connect 4 0 3 0;
#X connect 5 0 3 0;
