#N canvas 832 72 879 737 10;
#X obj 127 21 r note;
#X obj 119 125 pack 0 0 0;
#X floatatom 500 370 5 0 0 0 - - -;
#X obj 508 394 osc~;
#X obj 513 416 +~ 1;
#X obj 530 441 *~ 0.5;
#X floatatom 467 57 5 0 0 0 - - -;
#X floatatom 610 58 5 0 0 0 - - -;
#X obj 542 631 dac~;
#X obj 111 153 route 1 2 3 4;
#X msg 12 26 60 0;
#X msg 73 14 60 127;
#X msg 209 19 64 127;
#X msg 260 49 64 0;
#N canvas 1121 216 536 396 voice 0;
#X obj 124 44 inlet;
#X obj 125 89 unpack f f;
#X obj 125 147 mtof~;
#X obj 124 193 osc~;
#X obj 183 132 sel 0;
#X msg 175 165 0;
#X obj 132 239 *~;
#X msg 210 163 1;
#X obj 127 285 outlet~;
#X connect 0 0 1 0;
#X connect 1 0 2 0;
#X connect 1 1 4 0;
#X connect 2 0 3 0;
#X connect 3 0 6 0;
#X connect 4 0 5 0;
#X connect 4 1 7 0;
#X connect 5 0 6 1;
#X connect 6 0 8 0;
#X connect 7 0 6 1;
#X restore 30 241 pd voice;
#N canvas 1121 216 536 396 voice 0;
#X obj 124 44 inlet;
#X obj 125 89 unpack f f;
#X obj 125 147 mtof~;
#X obj 124 193 osc~;
#X obj 183 132 sel 0;
#X msg 175 165 0;
#X obj 132 239 *~;
#X msg 210 163 1;
#X obj 127 285 outlet~;
#X connect 0 0 1 0;
#X connect 1 0 2 0;
#X connect 1 1 4 0;
#X connect 2 0 3 0;
#X connect 3 0 6 0;
#X connect 4 0 5 0;
#X connect 4 1 7 0;
#X connect 5 0 6 1;
#X connect 6 0 8 0;
#X connect 7 0 6 1;
#X restore 104 242 pd voice;
#N canvas 1121 216 536 396 voice 0;
#X obj 124 44 inlet;
#X obj 125 89 unpack f f;
#X obj 125 147 mtof~;
#X obj 124 193 osc~;
#X obj 183 132 sel 0;
#X msg 175 165 0;
#X obj 132 239 *~;
#X msg 210 163 1;
#X obj 127 285 outlet~;
#X connect 0 0 1 0;
#X connect 1 0 2 0;
#X connect 1 1 4 0;
#X connect 2 0 3 0;
#X connect 3 0 6 0;
#X connect 4 0 5 0;
#X connect 4 1 7 0;
#X connect 5 0 6 1;
#X connect 6 0 8 0;
#X connect 7 0 6 1;
#X restore 168 243 pd voice;
#N canvas 1121 216 536 396 voice 0;
#X obj 124 44 inlet;
#X obj 125 89 unpack f f;
#X obj 125 147 mtof~;
#X obj 124 193 osc~;
#X obj 183 132 sel 0;
#X msg 175 165 0;
#X obj 132 239 *~;
#X msg 210 163 1;
#X obj 127 285 outlet~;
#X connect 0 0 1 0;
#X connect 1 0 2 0;
#X connect 1 1 4 0;
#X connect 2 0 3 0;
#X connect 3 0 6 0;
#X connect 4 0 5 0;
#X connect 4 1 7 0;
#X connect 5 0 6 1;
#X connect 6 0 8 0;
#X connect 7 0 6 1;
#X restore 233 243 pd voice;
#X obj 123 71 poly 4 1;
#X obj 596 556 *~ 1;
#X obj 610 101 s volumeLevel;
#X obj 471 103 s tremoloLevel;
#X obj 507 326 r tremoloLevel;
#X obj 711 226 r volumeLevel;
#X obj 523 541 *~;
#X obj 734 283 / 127;
#X obj 740 329 pack 0 50;
#X obj 718 374 line;
#X connect 0 0 18 0;
#X connect 1 0 9 0;
#X connect 2 0 3 0;
#X connect 3 0 4 0;
#X connect 4 0 5 0;
#X connect 5 0 24 1;
#X connect 6 0 21 0;
#X connect 7 0 20 0;
#X connect 9 0 14 0;
#X connect 9 1 15 0;
#X connect 9 2 16 0;
#X connect 9 3 17 0;
#X connect 10 0 18 0;
#X connect 11 0 18 0;
#X connect 12 0 18 0;
#X connect 13 0 18 0;
#X connect 14 0 24 0;
#X connect 15 0 24 0;
#X connect 16 0 24 0;
#X connect 17 0 24 0;
#X connect 18 0 1 0;
#X connect 18 1 1 1;
#X connect 18 2 1 2;
#X connect 19 0 8 0;
#X connect 19 0 8 1;
#X connect 22 0 2 0;
#X connect 23 0 25 0;
#X connect 24 0 19 0;
#X connect 25 0 26 0;
#X connect 26 0 27 0;
#X connect 27 0 19 1;
