#N canvas 393 508 450 300 10;
#X obj 126 253 dac~;
#X obj 127 21 r note;
#X obj 294 142 s note;
#X msg 293 77 440;
#X msg 354 94 0;
#X obj 128 120 osc~ 0;
#X obj 149 74 mtof;
#X obj 68 69 print note;
#X connect 1 0 6 0;
#X connect 1 0 7 0;
#X connect 3 0 2 0;
#X connect 4 0 2 0;
#X connect 5 0 0 0;
#X connect 6 0 5 0;
