#N canvas 832 72 879 737 10;
#X obj 127 21 r note;
#X obj 119 125 pack 0 0 0;
#X obj 546 477 *~;
#X obj 507 326 r \$0-tremoloLevel;
#X floatatom 500 370 5 0 0 0 - - -;
#X obj 508 394 osc~;
#X obj 513 416 +~ 1;
#X obj 530 441 *~ 0.5;
#X floatatom 594 429 5 0 0 0 - - -;
#X obj 606 397 r \$0-volumeLevel;
#X obj 472 103 s \$0-tremoloLevel;
#X obj 610 101 s \$0-volumeLevel;
#X floatatom 467 57 5 0 0 0 - - -;
#X floatatom 610 58 5 0 0 0 - - -;
#X obj 542 522 dac~;
#X obj 111 153 route 1 2 3 4;
#X msg 12 26 60 0;
#X msg 73 14 60 127;
#X msg 209 19 64 127;
#X msg 260 49 64 0;
#N canvas 1121 216 536 396 voice 0;
#X obj 124 44 inlet;
#X obj 125 89 unpack f f;
#X obj 125 147 mtof~;
#X obj 124 193 osc~;
#X obj 183 132 sel 0;
#X msg 175 165 0;
#X obj 132 239 *~;
#X msg 210 163 1;
#X obj 127 285 outlet~;
#X connect 0 0 1 0;
#X connect 1 0 2 0;
#X connect 1 1 4 0;
#X connect 2 0 3 0;
#X connect 3 0 6 0;
#X connect 4 0 5 0;
#X connect 4 1 7 0;
#X connect 5 0 6 1;
#X connect 6 0 8 0;
#X connect 7 0 6 1;
#X restore 30 241 pd voice;
#N canvas 1121 216 536 396 voice 0;
#X obj 124 44 inlet;
#X obj 125 89 unpack f f;
#X obj 125 147 mtof~;
#X obj 124 193 osc~;
#X obj 183 132 sel 0;
#X msg 175 165 0;
#X obj 132 239 *~;
#X msg 210 163 1;
#X obj 127 285 outlet~;
#X connect 0 0 1 0;
#X connect 1 0 2 0;
#X connect 1 1 4 0;
#X connect 2 0 3 0;
#X connect 3 0 6 0;
#X connect 4 0 5 0;
#X connect 4 1 7 0;
#X connect 5 0 6 1;
#X connect 6 0 8 0;
#X connect 7 0 6 1;
#X restore 104 242 pd voice;
#N canvas 1121 216 536 396 voice 0;
#X obj 124 44 inlet;
#X obj 125 89 unpack f f;
#X obj 125 147 mtof~;
#X obj 124 193 osc~;
#X obj 183 132 sel 0;
#X msg 175 165 0;
#X obj 132 239 *~;
#X msg 210 163 1;
#X obj 127 285 outlet~;
#X connect 0 0 1 0;
#X connect 1 0 2 0;
#X connect 1 1 4 0;
#X connect 2 0 3 0;
#X connect 3 0 6 0;
#X connect 4 0 5 0;
#X connect 4 1 7 0;
#X connect 5 0 6 1;
#X connect 6 0 8 0;
#X connect 7 0 6 1;
#X restore 168 243 pd voice;
#N canvas 1121 216 536 396 voice 0;
#X obj 124 44 inlet;
#X obj 125 89 unpack f f;
#X obj 125 147 mtof~;
#X obj 124 193 osc~;
#X obj 183 132 sel 0;
#X msg 175 165 0;
#X obj 132 239 *~;
#X msg 210 163 1;
#X obj 127 285 outlet~;
#X connect 0 0 1 0;
#X connect 1 0 2 0;
#X connect 1 1 4 0;
#X connect 2 0 3 0;
#X connect 3 0 6 0;
#X connect 4 0 5 0;
#X connect 4 1 7 0;
#X connect 5 0 6 1;
#X connect 6 0 8 0;
#X connect 7 0 6 1;
#X restore 233 243 pd voice;
#X obj 123 71 poly 4 1;
#X connect 0 0 24 0;
#X connect 1 0 15 0;
#X connect 2 0 14 0;
#X connect 2 0 14 1;
#X connect 3 0 4 0;
#X connect 4 0 5 0;
#X connect 5 0 6 0;
#X connect 6 0 7 0;
#X connect 7 0 2 1;
#X connect 8 0 2 1;
#X connect 9 0 8 0;
#X connect 12 0 10 0;
#X connect 13 0 11 0;
#X connect 15 0 20 0;
#X connect 15 1 21 0;
#X connect 15 2 22 0;
#X connect 15 3 23 0;
#X connect 16 0 24 0;
#X connect 17 0 24 0;
#X connect 18 0 24 0;
#X connect 19 0 24 0;
#X connect 20 0 2 0;
#X connect 21 0 2 0;
#X connect 22 0 2 0;
#X connect 23 0 2 0;
#X connect 24 0 1 0;
#X connect 24 1 1 1;
#X connect 24 2 1 2;
