#N canvas 484 154 690 432 10;
#X obj 164 393 dac~;
#X obj 199 221 adsr_obj;
#X obj 167 279 filter;
#X obj 215 102 poly 4 1;
#X obj 203 45 r note;
#X obj 208 134 pack 0 0 0;
#X obj 317 164 print;
#X obj 350 104 noteflush;
#X obj 416 78 bng 15 250 50 0 empty empty empty 17 7 0 10 -262144 -1
-1;
#X msg 513 301 64 127;
#X obj 514 361 s note;
#X msg 432 300 60 127;
#X msg 589 300 67 127;
#X obj 511 229 bng 15 250 50 0 empty empty empty 17 7 0 10 -262144
-1 -1;
#X obj 213 197 route 1 2 3 4;
#X msg 583 335 70 127;
#X msg 249 348 65 127;
#X msg 317 348 69 127;
#X msg 380 347 72 127;
#X msg 379 380 77 127;
#X obj 292 401 s note;
#X obj 308 291 bng 15 250 50 0 empty empty empty 17 7 0 10 -262144
-1 -1;
#X msg 124 51 60 127;
#X obj 255 221 adsr_obj;
#X obj 311 221 adsr_obj;
#X obj 367 221 adsr_obj;
#X connect 1 0 2 0;
#X connect 2 0 0 0;
#X connect 2 0 0 1;
#X connect 3 0 5 0;
#X connect 3 1 5 1;
#X connect 3 2 5 2;
#X connect 4 0 3 0;
#X connect 5 0 6 0;
#X connect 5 0 14 0;
#X connect 7 0 3 0;
#X connect 8 0 7 1;
#X connect 9 0 10 0;
#X connect 11 0 10 0;
#X connect 12 0 10 0;
#X connect 13 0 11 0;
#X connect 13 0 9 0;
#X connect 13 0 12 0;
#X connect 13 0 15 0;
#X connect 14 0 1 0;
#X connect 14 1 23 0;
#X connect 14 2 24 0;
#X connect 14 3 25 0;
#X connect 15 0 10 0;
#X connect 16 0 20 0;
#X connect 17 0 20 0;
#X connect 18 0 20 0;
#X connect 19 0 20 0;
#X connect 21 0 16 0;
#X connect 21 0 17 0;
#X connect 21 0 18 0;
#X connect 21 0 19 0;
#X connect 22 0 3 0;
#X connect 23 0 2 0;
#X connect 24 0 2 0;
#X connect 25 0 2 0;
