#N canvas 1010 51 709 849 10;
#X msg 520 697 \$1 \$2;
#X msg 573 697 \$3;
#X obj 97 596 outlet~;
#X obj 591 640 t a a a;
#X obj 545 581 inlet;
#X msg 465 216 reverb_amount \$5;
#X msg 466 238 chorus_amount \$6;
#X msg 465 259 filter_frequency \$7;
#X msg 466 280 filter_q \$8;
#X text 464 195 FX LIST;
#X obj 164 447 soundfonts;
#X obj 607 606 argv;
#X msg 91 692 set /Users/comp150/Documents/TeamTouchSynth/comp150isw-spring2015-team7/TouchSynthProject/Pd-for-LibPd/soundfonts/banjo_1.sf2
;
#X msg 117 659 47 127;
#X obj 184 561 dac~;
#X obj 172 197 r note;
#X obj 217 197 r soundfont;
#X obj 201 275 list trim;
#X obj 256 591 outlet~;
#X obj 253 452 r volume;
#X obj 175 513 *~ 0.1;
#X obj 116 197 r reverb;
#X obj 60 197 r chorus;
#X connect 4 0 3 0;
#X connect 10 0 2 0;
#X connect 10 0 20 0;
#X connect 10 1 18 0;
#X connect 10 1 20 0;
#X connect 11 0 3 0;
#X connect 15 0 10 0;
#X connect 16 0 17 0;
#X connect 17 0 10 0;
#X connect 19 0 20 1;
#X connect 20 0 14 0;
#X connect 20 0 14 1;
#X connect 21 0 10 0;
#X connect 22 0 10 0;
