#N canvas 1125 64 709 849 10;
#X obj 101 440 soundfonts;
#X msg 63 196 \$1 \$2;
#X msg 116 196 \$3;
#X obj 98 268 string_to_patch;
#X msg 152 196 volume \$4;
#X obj 363 601 unpack 0 0 0 0 0 0 0 0;
#X obj 339 679 pack;
#X obj 384 680 string_to_patch;
#X msg 408 715 volume \$1;
#X msg 337 528 47 63 banjo_1.sf2 100 0 500 0.5 500;
#X msg 377 556 47 0 banjo_1.sf2 100 0 500 0.5 500;
#X obj 389 800 print;
#X msg 224 196 \$5;
#X msg 260 196 \$6;
#X msg 296 197 \$7;
#X msg 331 197 \$8;
#X obj 201 268 volume_env;
#X msg 476 480 47 0 banjo_1.sf2 100 0 500 0.5 0;
#X msg 221 481 47 127 banjo_1.sf2 100 0 500 0.5 0;
#X obj 52 512 outlet~;
#X obj 120 510 outlet~;
#X obj 155 60 argv;
#X obj 139 94 t a a a;
#X obj 527 720 volume_env;
#X obj 286 99 print;
#X obj 93 35 inlet;
#X connect 0 0 19 0;
#X connect 0 1 20 0;
#X connect 1 0 0 0;
#X connect 2 0 3 0;
#X connect 3 0 0 0;
#X connect 5 0 6 0;
#X connect 5 1 6 1;
#X connect 5 2 7 0;
#X connect 5 2 11 0;
#X connect 5 3 8 0;
#X connect 5 4 23 0;
#X connect 5 5 23 1;
#X connect 5 6 23 2;
#X connect 5 7 23 3;
#X connect 9 0 5 0;
#X connect 10 0 5 0;
#X connect 12 0 16 0;
#X connect 13 0 16 1;
#X connect 14 0 16 2;
#X connect 15 0 16 3;
#X connect 16 0 0 0;
#X connect 21 0 22 0;
#X connect 21 0 24 0;
#X connect 22 0 1 0;
#X connect 22 1 12 0;
#X connect 22 1 13 0;
#X connect 22 1 14 0;
#X connect 22 1 15 0;
#X connect 22 2 2 0;
#X connect 25 0 22 0;
