#N canvas 1034 69 709 849 10;
#X obj 101 440 soundfonts;
#X msg 63 196 \$1 \$2;
#X msg 116 196 \$3;
#X obj 98 268 string_to_patch;
#X msg 152 196 volume \$4;
#X obj 52 512 outlet~;
#X obj 120 510 outlet~;
#X obj 155 60 argv;
#X obj 139 94 t a a a;
#X obj 286 99 print;
#X obj 93 35 inlet;
#X msg 465 216 reverb_amount \$5;
#X msg 466 238 chorus_amount \$6;
#X msg 465 259 filter_frequency \$7;
#X msg 466 280 filter_q \$8;
#X text 464 195 FX LIST;
#X connect 0 0 5 0;
#X connect 0 1 6 0;
#X connect 1 0 0 0;
#X connect 2 0 3 0;
#X connect 3 0 0 0;
#X connect 7 0 8 0;
#X connect 7 0 9 0;
#X connect 8 0 1 0;
#X connect 8 1 11 0;
#X connect 8 1 12 0;
#X connect 8 1 13 0;
#X connect 8 1 14 0;
#X connect 8 2 2 0;
#X connect 10 0 8 0;
#X connect 11 0 0 0;
#X connect 12 0 0 0;
#X connect 13 0 0 0;
#X connect 14 0 0 0;
