#N canvas 1034 69 709 849 10;
#X msg 63 196 \$1 \$2;
#X msg 116 196 \$3;
#X obj 98 268 string_to_patch;
#X msg 152 196 volume \$4;
#X obj 52 512 outlet~;
#X obj 120 510 outlet~;
#X obj 139 94 t a a a;
#X obj 93 35 inlet;
#X msg 465 216 reverb_amount \$5;
#X msg 466 238 chorus_amount \$6;
#X msg 465 259 filter_frequency \$7;
#X msg 466 280 filter_q \$8;
#X text 464 195 FX LIST;
#X obj 101 440 soundfonts;
#X obj 155 60 argv;
#X obj -2 339 print note:;
#X obj 176 229 print patch:;
#X obj 171 314 print formattedPatch:;
#X obj 286 99 print args;
#X obj 489 79 print inlet:;
#X connect 0 0 13 0;
#X connect 0 0 15 0;
#X connect 1 0 2 0;
#X connect 1 0 16 0;
#X connect 2 0 13 0;
#X connect 2 0 17 0;
#X connect 6 0 0 0;
#X connect 6 2 1 0;
#X connect 7 0 6 0;
#X connect 7 0 19 0;
#X connect 13 0 4 0;
#X connect 13 1 5 0;
#X connect 14 0 6 0;
#X connect 14 0 18 0;
