#N canvas 451 19 1081 770 10;
#X obj 173 138 soundfonts;
#X msg 454 84 47 127;
#X obj 244 727 dac~;
#X obj 151 14 r note;
#X obj 196 14 r soundfont;
#X obj 180 92 list trim;
#X obj 313 618 r volume;
#X obj 235 679 *~ 0.1;
#X obj 93 12 r chorus;
#X msg 451 32 set /Users/comp150/Documents/Eli/Pd-for-LibPd/soundfonts/banjo_1.sf2
;
#X obj 508 274 r reverb_damping;
#X obj 509 233 r reverb_feedback;
#X obj 509 254 r reverb_crossover_freq;
#X obj 214 263 rev3~ 100 80 3000 0;
#X obj 505 314 r delay_time;
#X obj 504 334 r delay_feedback;
#X obj 503 355 r delay_amount;
#X text 509 195 FX List;
#X text 587 313 time \$1;
#X text 609 333 feedback \$1;
#X text 597 354 amount \$1;
#X obj 508 293 r delay_on;
#X text 577 293 on \$1;
#X obj 342 275 tgl 15 0 empty empty empty 17 7 0 10 -262144 -1 -1 0
1;
#X msg 308 294 on \$1;
#X obj 220 317 multidelay~ 0 0 0;
#X obj 509 213 r reverb_on;
#X obj 503 395 r tremolo_rate;
#X obj 502 414 r tremolo_depth;
#X obj 503 375 r tremolo_on;
#X obj 341 365 tgl 15 0 empty empty empty 17 7 0 10 -262144 -1 -1 0
1;
#X msg 315 385 on \$1;
#X obj 215 417 multitremolo~ 127 127;
#X obj 502 433 r tremolo_shape;
#X text 600 435 shape \$1 (0-3);
#X text 601 414 depth \$1;
#X text 596 395 rate \$1;
#X text 583 375 on \$1;
#X connect 0 0 13 0;
#X connect 0 1 13 0;
#X connect 1 0 0 0;
#X connect 3 0 0 0;
#X connect 4 0 5 0;
#X connect 5 0 0 0;
#X connect 6 0 7 1;
#X connect 7 0 2 0;
#X connect 7 0 2 1;
#X connect 8 0 0 0;
#X connect 9 0 0 0;
#X connect 10 0 13 5;
#X connect 11 0 13 3;
#X connect 12 0 13 4;
#X connect 13 0 25 0;
#X connect 13 1 25 0;
#X connect 14 0 25 1;
#X connect 15 0 25 1;
#X connect 16 0 25 1;
#X connect 21 0 23 0;
#X connect 23 0 24 0;
#X connect 24 0 25 1;
#X connect 25 0 32 0;
#X connect 27 0 32 1;
#X connect 28 0 32 1;
#X connect 29 0 30 0;
#X connect 30 0 31 0;
#X connect 31 0 32 1;
#X connect 32 0 7 0;
#X connect 33 0 32 1;
