#N canvas 399 35 1081 829 10;
#X obj 173 138 soundfonts;
#X msg 454 84 47 127;
#X obj 244 727 dac~;
#X obj 151 14 r note;
#X obj 199 7 r soundfont;
#X obj 313 618 r volume;
#X obj 93 12 r chorus;
#X obj 508 274 r reverb_damping;
#X obj 509 233 r reverb_feedback;
#X obj 509 254 r reverb_crossover_freq;
#X obj 216 248 rev3~ 100 80 3000 0;
#X obj 505 314 r delay_time;
#X obj 504 334 r delay_feedback;
#X obj 503 355 r delay_amount;
#X text 509 195 FX List;
#X text 587 313 time \$1;
#X text 609 333 feedback \$1;
#X text 597 354 amount \$1;
#X obj 508 293 r delay_on;
#X text 577 293 on \$1;
#X obj 361 293 tgl 15 0 empty empty empty 17 7 0 10 -262144 -1 -1 1
1;
#X msg 362 313 on \$1;
#X obj 208 391 multidelay~ 0 0 0;
#X obj 509 213 r reverb_on;
#X obj 503 395 r tremolo_rate;
#X obj 502 414 r tremolo_depth;
#X obj 503 375 r tremolo_on;
#X obj 353 433 tgl 15 0 empty empty empty 17 7 0 10 -262144 -1 -1 1
1;
#X msg 325 455 on \$1;
#X obj 195 504 multitremolo~ 127 127;
#X obj 502 433 r tremolo_shape;
#X text 600 435 shape \$1 (0-3);
#X text 601 414 depth \$1;
#X text 596 395 rate \$1;
#X text 583 375 on \$1;
#X obj 503 491 r filter_type;
#X text 588 492 lowpass/highpass/bandpass;
#X obj 503 472 r filter_q;
#X obj 502 453 r filter_freq;
#X obj 175 586 autobiquad~ 1000 1 0 lowpass;
#X text 569 472 0-20;
#X text 587 453 0-10000;
#N canvas 793 142 450 300 init_filter 0;
#X obj 140 123 loadfloat 1;
#X obj 220 123 loadfloat 0;
#X obj 322 123 loadbang;
#X msg 321 170 lowpass;
#X obj 231 208 outlet;
#X obj 39 194 outlet;
#X obj 144 208 outlet;
#X obj 318 202 outlet;
#X obj 37 122 loadfloat 20000;
#X obj 173 13 inlet;
#X connect 0 0 6 0;
#X connect 1 0 4 0;
#X connect 2 0 3 0;
#X connect 3 0 7 0;
#X connect 8 0 5 0;
#X restore 209 528 pd init_filter;
#N canvas 1369 96 450 300 init_reverb 0;
#X obj 35 108 loadfloat 100;
#X obj 39 190 outlet;
#X obj 126 192 outlet;
#X obj 212 197 outlet;
#X obj 306 198 outlet;
#X obj 124 112 loadfloat 80;
#X obj 213 113 loadfloat 3000;
#X obj 313 113 loadfloat 0;
#X obj 163 21 inlet;
#X obj 159 46 t b b b b;
#X connect 0 0 1 0;
#X connect 5 0 2 0;
#X connect 6 0 3 0;
#X connect 7 0 4 0;
#X connect 8 0 9 0;
#X connect 9 0 0 0;
#X connect 9 1 5 0;
#X connect 9 2 6 0;
#X connect 9 3 7 0;
#X restore 274 156 pd init_reverb;
#X msg 450 32 set /Users/comp150/Documents/Eli/Pd-for-LibPd/soundfonts/piano_1.sf2
;
#X obj 328 405 loadbang;
#X obj 340 270 loadbang;
#N canvas 1231 489 450 300 init_tremolo 0;
#X obj 99 151 loadbang;
#X obj 184 151 loadbang;
#X obj 264 150 loadbang;
#X msg 98 198 rate 0;
#X msg 179 198 shape 0;
#X msg 261 199 depth 127;
#X obj 103 260 outlet;
#X obj 178 259 outlet;
#X obj 265 261 outlet;
#X obj 158 21 inlet;
#X connect 0 0 3 0;
#X connect 1 0 4 0;
#X connect 2 0 5 0;
#X connect 3 0 6 0;
#X connect 4 0 7 0;
#X connect 5 0 8 0;
#X restore 222 430 pd init_tremolo;
#X obj 42 273 hsl 128 15 0 127 0 0 empty empty empty -2 -8 0 10 -262144
-1 -1 0 1;
#X obj 30 402 hsl 128 15 0 127 0 0 empty empty empty -2 -8 0 10 -262144
-1 -1 0 1;
#X obj 19 492 hsl 128 15 0 10000 0 0 empty empty empty -2 -8 0 10 -262144
-1 -1 0 1;
#X obj 22 173 hsl 128 15 80 100 0 0 empty empty empty -2 -8 0 10 -262144
-1 -1 0 1;
#X msg 52 303 time \$1;
#X msg 44 431 rate \$1;
#X obj 128 635 gswitch~;
#X obj 479 571 r filter_on;
#X text 556 570 0 for off \, 1 for on;
#X obj 56 547 loadfloat 0;
#X obj 252 53 t b;
#N canvas 1156 81 450 300 init_delay 0;
#X obj 147 104 loadbang;
#X obj 223 99 loadbang;
#X obj 293 105 loadbang;
#X msg 111 175 time 0;
#X msg 188 161 feedback 80;
#X msg 290 161 amount 100;
#X obj 97 250 outlet;
#X obj 175 249 outlet;
#X obj 271 246 outlet;
#X obj 196 8 inlet;
#X connect 0 0 3 0;
#X connect 1 0 4 0;
#X connect 2 0 5 0;
#X connect 3 0 6 0;
#X connect 4 0 7 0;
#X connect 5 0 8 0;
#X restore 247 348 pd init_delay;
#X obj 381 341 list trim;
#X obj 401 431 list trim;
#X obj 235 679 *~ 0.9;
#X msg 437 541 \$1;
#X obj 775 540 print FIlTER_FREQ;
#X obj 18 12 r fine_tune;
#X obj 193 93 list trim;
#X connect 0 0 10 0;
#X connect 0 1 10 1;
#X connect 1 0 0 0;
#X connect 3 0 0 0;
#X connect 4 0 58 0;
#X connect 4 0 66 0;
#X connect 5 0 62 1;
#X connect 6 0 66 0;
#X connect 7 0 10 5;
#X connect 8 0 10 3;
#X connect 9 0 10 4;
#X connect 10 0 22 0;
#X connect 10 1 22 0;
#X connect 11 0 60 0;
#X connect 12 0 22 1;
#X connect 13 0 22 1;
#X connect 18 0 20 0;
#X connect 20 0 21 0;
#X connect 21 0 22 1;
#X connect 22 0 29 0;
#X connect 24 0 61 0;
#X connect 25 0 29 1;
#X connect 26 0 27 0;
#X connect 27 0 28 0;
#X connect 28 0 29 1;
#X connect 29 0 39 0;
#X connect 29 0 54 0;
#X connect 30 0 29 1;
#X connect 35 0 63 0;
#X connect 37 0 39 2;
#X connect 38 0 39 1;
#X connect 38 0 64 0;
#X connect 39 0 54 1;
#X connect 42 0 39 1;
#X connect 42 1 39 2;
#X connect 42 2 39 3;
#X connect 42 3 39 4;
#X connect 43 0 10 2;
#X connect 43 1 10 3;
#X connect 43 2 10 4;
#X connect 43 3 10 5;
#X connect 44 0 0 0;
#X connect 45 0 27 0;
#X connect 46 0 20 0;
#X connect 47 0 29 1;
#X connect 47 1 29 1;
#X connect 47 2 29 1;
#X connect 48 0 52 0;
#X connect 49 0 53 0;
#X connect 50 0 39 1;
#X connect 51 0 10 3;
#X connect 52 0 22 1;
#X connect 53 0 29 1;
#X connect 54 0 62 0;
#X connect 55 0 54 2;
#X connect 57 0 54 2;
#X connect 59 0 22 1;
#X connect 59 1 22 1;
#X connect 59 2 22 1;
#X connect 60 0 22 1;
#X connect 61 0 29 1;
#X connect 62 0 2 0;
#X connect 62 0 2 1;
#X connect 63 0 39 4;
#X connect 65 0 66 0;
#X connect 66 0 0 0;
