#N canvas 1117 112 709 849 10;
#X msg 63 196 \$1 \$2;
#X msg 116 196 \$3;
#X obj 231 267 string_to_patch;
#X obj 52 512 outlet~;
#X obj 120 510 outlet~;
#X obj 139 94 t a a a;
#X obj 93 35 inlet;
#X msg 465 216 reverb_amount \$5;
#X msg 466 238 chorus_amount \$6;
#X msg 465 259 filter_frequency \$7;
#X msg 466 280 filter_q \$8;
#X text 464 195 FX LIST;
#X obj 101 440 soundfonts;
#X obj 155 60 argv;
#X msg 145 269 r note;
#X connect 0 0 12 0;
#X connect 1 0 12 0;
#X connect 5 0 0 0;
#X connect 5 1 7 0;
#X connect 5 1 8 0;
#X connect 5 1 9 0;
#X connect 5 1 10 0;
#X connect 5 2 1 0;
#X connect 6 0 5 0;
#X connect 7 0 12 0;
#X connect 8 0 12 0;
#X connect 9 0 12 0;
#X connect 10 0 12 0;
#X connect 12 0 3 0;
#X connect 12 1 4 0;
#X connect 13 0 5 0;
#X connect 14 0 12 0;
